<svg version="1.0" xmlns="http://www.w3.org/2000/svg" width="2524" height="2560" viewBox="0 0 1893 1920"><path d="M240.1 1.7C242.6 4.9 291.6 62 321 96c15.9 18.4 40.3 46.8 54.2 63 13.9 16.2 26.4 30.6 27.8 32 1.4 1.4 14.5 16.4 29 33.5 14.5 17 26.9 31.4 27.6 32 .7.5 12.8 14.5 26.8 31l25.5 30-9.7.6c-16.9.9 39.9 1.2 477.8 1.9 379.6.7 426.5.9 435 2.3 54.9 9.1 101.8 32.7 139.5 70.3 38.9 38.9 62.5 86.4 71.3 143.7 1.6 10.5 1.7 41.3 1.7 475.2 0 499.8.3 469.7-5.2 496-4.9 23.6-16.8 54.3-29.2 75.2-1.7 2.9-2.9 5.3-2.7 5.3.3 0 2.1-2.7 4.1-6 2-3.3 3.8-6 4-6 .2 0 4 4.4 8.5 9.7 4.5 5.4 9.2 10.7 10.4 11.8 1.2 1.2 14.1 16 28.6 33 14.4 17.1 27.3 31.9 28.5 33 1.3 1.1 13.8 15.5 27.9 32 14.1 16.5 38.7 45.1 54.6 63.5 15.9 18.4 40.7 47.2 55 64 14.4 16.8 26.9 31.1 27.8 31.7 1.6 1.1 2.6.3 8.2-6.3 10-11.7 18.6-24.7 25.6-38.9 10.5-21.4 15.7-40.5 17.4-64.4 1.4-18.6 1.3-1562.9-.1-1576.2-4.2-42-22.3-79.5-52.8-109.9-30.1-30-64.5-47.3-111.6-56.3l-11-2.1L977.1.3C276.4 0 238.8.1 240.1 1.7z"/><path d="m603.2 461 33.7.5 18.7 22c10.2 12.1 20.3 23.7 22.3 25.9 3.8 4.1 40.5 46.6 83.5 96.8 14.3 16.7 28.1 32.5 30.7 35.3 8.6 9.1 30.8 35.8 30.4 36.5-.2.4-3.2 1.7-6.6 2.9-3.3 1.3-5.9 2.4-5.7 2.6.2.2 4.2-1 8.8-2.6 60.5-21.5 130.1-25.3 194.3-10.9 54.4 12.3 109.8 40.5 152 77.5 60.7 53.1 101.9 126.1 115.1 203.9 4 23.4 5 35.9 5 61.1-.1 56.2-11.8 106.3-36.5 155.7-7.1 14.4-8.3 17.8-2.9 8.2 1.8-3 3.6-5.2 4-4.7.4.4 8.8 10.2 18.6 21.8 9.8 11.5 18.8 21.9 20 23 1.2 1.1 13.8 15.6 28 32.3 51.7 60.4 79.5 92.7 80.7 93.7.7.5 12.9 14.7 27.1 31.5 14.2 16.8 26.8 31.3 27.9 32.3 1.2 1 9.4 10.4 18.3 21l16.3 19.1.4 7.6c.2 4.1.3-197.3.3-447.5l-.1-455-2.3-8c-4.4-15.7-8.4-24.4-16.2-36-16.4-24.2-42.4-41-70.9-46-7.3-1.3-61.7-1.5-418.5-1.3-225.5.2-394.9.5-376.4.8zm739.3 100.5c25.4 2.2 50.6 19.8 62.4 43.4 6.9 13.8 8.5 20.7 8.5 37.1 0 13.1-.3 15.4-2.8 23.5-8.3 26.7-27.4 46-54.6 55.1-7.9 2.6-9.6 2.8-23.5 2.8-13.6 0-15.8-.3-23.7-2.8-26.5-8.5-46.3-28.1-54.4-53.8-15.5-49.1 18.2-100.4 69.4-105.7 4.3-.4 8.6-.7 9.7-.5 1.1.2 5.2.5 9 .9z"/><path d="M1324.5 585.6c-22.1 3.4-40 18.9-46.7 40.2-2.7 8.6-2.8 23.1-.3 31.7 4 13.9 14.9 27.8 27.1 34.4 38.3 20.9 84.4-6.1 84.5-49.5.1-10.5-1.8-17.9-6.8-27.5-6.3-12.2-20.1-23.5-33.3-27.3-5.7-1.7-19.3-2.8-24.5-2zM919 803c-5.9.7-5.6.7 3.2.6l9.7-.1 11.8 13.7c6.5 7.5 23.4 27.3 37.7 44 14.2 16.7 27 31.4 28.5 32.8 1.4 1.4 14.3 16.3 28.5 33 14.3 16.8 27.1 31.6 28.5 33 1.5 1.4 14 15.8 27.9 32 13.9 16.2 28.4 33.1 32.3 37.5 3.9 4.4 8.7 9.9 10.6 12.2l3.5 4.2-1.7 8.1c-.9 4.5-1.5 8.4-1.2 8.6.8.8 4.6-21.2 5.8-33.1 1.3-12.8.6-35.6-1.5-49.7-9.4-61-45.6-115-98.7-147.4-36.7-22.4-84.6-33.6-124.9-29.4zM906.3 804.7c.9.2 2.5.2 3.5 0 .9-.3.1-.5-1.8-.5-1.9 0-2.7.2-1.7.5zM900.3 805.7c.9.2 2.3.2 3 0 .6-.3-.1-.5-1.8-.5-1.6 0-2.2.2-1.2.5zM894.8 806.7c.7.3 1.6.2 1.9-.1.4-.3-.2-.6-1.3-.5-1.1 0-1.4.3-.6.6zM889.8 807.7c.7.3 1.6.2 1.9-.1.4-.3-.2-.6-1.3-.5-1.1 0-1.4.3-.6.6zM1136.6 1066.6c-.4 1.4-.5 2.8-.3 3.1.3.2.8-.8 1.1-2.3.4-1.4.5-2.8.3-3.1-.3-.2-.8.8-1.1 2.3zM1135.1 1071.7c-.1.6-.4 2-.7 3-.5 1.7-.5 1.7.6 0 .6-1 .9-2.3.6-3-.3-.9-.5-.9-.5 0zM1485.7 1468c-.4 3.6-.9 7.8-1.2 9.5-.2 1.6.2.5 1-2.5s1.4-7.3 1.2-9.5c-.2-3.3-.3-2.9-1 2.5zM1483.1 1482.6c0 1.1.3 1.4.6.6.3-.7.2-1.6-.1-1.9-.3-.4-.6.2-.5 1.3z"/></svg>