<?xml version="1.0" standalone="no"?>
<!DOCTYPE svg PUBLIC "-//W3C//DTD SVG 20010904//EN"
 "http://www.w3.org/TR/2001/REC-SVG-20010904/DTD/svg10.dtd">
<svg version="1.0" xmlns="http://www.w3.org/2000/svg"
 width="1893.000000pt" height="1920.000000pt" viewBox="0 0 1893.000000 1920.000000"
 preserveAspectRatio="xMidYMid meet">

<g transform="translate(0.000000,1920.000000) scale(0.100000,-0.100000)"
fill="#000000" stroke="none">
<path d="M2401 19183 c25 -32 515 -603 809 -943 159 -184 403 -468 542 -630
139 -162 264 -306 278 -320 14 -14 145 -164 290 -335 145 -170 269 -314 276
-320 7 -5 128 -145 268 -310 l255 -300 -97 -6 c-169 -9 399 -12 4778 -19 3796
-7 4265 -9 4350 -23 549 -91 1018 -327 1395 -703 389 -389 625 -864 713 -1437
16 -105 17 -413 17 -4752 0 -4998 3 -4697 -52 -4960 -49 -236 -168 -543 -292
-752 -17 -29 -29 -53 -27 -53 3 0 21 27 41 60 20 33 38 60 40 60 2 0 40 -44
85 -97 45 -54 92 -107 104 -118 12 -12 141 -160 286 -330 144 -171 273 -319
285 -330 13 -11 138 -155 279 -320 141 -165 387 -451 546 -635 159 -184 407
-472 550 -640 144 -168 269 -311 278 -317 16 -11 26 -3 82 63 100 117 186 247
256 389 105 214 157 405 174 644 14 186 13 15629 -1 15762 -42 420 -223 795
-528 1099 -301 300 -645 473 -1116 563 l-110 21 -7384 3 c-7007 3 -7383 2
-7370 -14z"/>
<path d="M6032 14590 l337 -5 187 -220 c102 -121 203 -237 223 -259 38 -41
405 -466 835 -968 143 -167 281 -325 307 -353 86 -91 308 -358 304 -365 -2 -4
-32 -17 -66 -29 -33 -13 -59 -24 -57 -26 2 -2 42 10 88 26 605 215 1301 253
1943 109 544 -123 1098 -405 1520 -775 607 -531 1019 -1261 1151 -2039 40
-234 50 -359 50 -611 -1 -562 -118 -1063 -365 -1557 -71 -144 -83 -178 -29
-82 18 30 36 52 40 47 4 -4 88 -102 186 -218 98 -115 188 -219 200 -230 12
-11 138 -156 280 -323 517 -604 795 -927 807 -937 7 -5 129 -147 271 -315 142
-168 268 -313 279 -323 12 -10 94 -104 183 -210 l163 -191 4 -76 c2 -41 3
1973 3 4475 l-1 4550 -23 80 c-44 157 -84 244 -162 360 -164 242 -424 410
-709 460 -73 13 -617 15 -4185 13 -2255 -2 -3949 -5 -3764 -8z m7393 -1005
c254 -22 506 -198 624 -434 69 -138 85 -207 85 -371 0 -131 -3 -154 -28 -235
-83 -267 -274 -460 -546 -551 -79 -26 -96 -28 -235 -28 -136 0 -158 3 -237 28
-265 85 -463 281 -544 538 -155 491 182 1004 694 1057 43 4 86 7 97 5 11 -2
52 -5 90 -9z"/>
<path d="M13245 13344 c-221 -34 -400 -189 -467 -402 -27 -86 -28 -231 -3
-317 40 -139 149 -278 271 -344 383 -209 844 61 845 495 1 105 -18 179 -68
275 -63 122 -201 235 -333 273 -57 17 -193 28 -245 20z"/>
<path d="M9190 11170 c-59 -7 -56 -7 32 -6 l97 1 118 -137 c65 -75 234 -273
377 -440 142 -167 270 -314 285 -328 14 -14 143 -163 285 -330 143 -168 271
-316 285 -330 15 -14 140 -158 279 -320 139 -162 284 -331 323 -375 39 -44 87
-99 106 -122 l35 -42 -17 -81 c-9 -45 -15 -84 -12 -86 8 -8 46 212 58 331 13
128 6 356 -15 497 -94 610 -456 1150 -987 1474 -367 224 -846 336 -1249 294z"/>
<path d="M9063 11153 c9 -2 25 -2 35 0 9 3 1 5 -18 5 -19 0 -27 -2 -17 -5z"/>
<path d="M9003 11143 c9 -2 23 -2 30 0 6 3 -1 5 -18 5 -16 0 -22 -2 -12 -5z"/>
<path d="M8948 11133 c7 -3 16 -2 19 1 4 3 -2 6 -13 5 -11 0 -14 -3 -6 -6z"/>
<path d="M8898 11123 c7 -3 16 -2 19 1 4 3 -2 6 -13 5 -11 0 -14 -3 -6 -6z"/>
<path d="M11366 8534 c-4 -14 -5 -28 -3 -31 3 -2 8 8 11 23 4 14 5 28 3 31 -3
2 -8 -8 -11 -23z"/>
<path d="M11351 8483 c-1 -6 -4 -20 -7 -30 -5 -17 -5 -17 6 0 6 10 9 23 6 30
-3 9 -5 9 -5 0z"/>
<path d="M14857 4520 c-4 -36 -9 -78 -12 -95 -2 -16 2 -5 10 25 8 30 14 73 12
95 -2 33 -3 29 -10 -25z"/>
<path d="M14831 4374 c0 -11 3 -14 6 -6 3 7 2 16 -1 19 -3 4 -6 -2 -5 -13z"/>
</g>
</svg>
