<?xml version="1.0" standalone="no"?>
<!DOCTYPE svg PUBLIC "-//W3C//DTD SVG 20010904//EN"
 "http://www.w3.org/TR/2001/REC-SVG-20010904/DTD/svg10.dtd">
<svg version="1.0" xmlns="http://www.w3.org/2000/svg"
 width="500.000000pt" height="500.000000pt" viewBox="0 0 500.000000 500.000000"
 preserveAspectRatio="xMidYMid meet">

<g transform="translate(0.000000,500.000000) scale(0.100000,-0.100000)"
fill="#000000" stroke="none">
<path d="M2180 4610 c-289 -48 -552 -145 -780 -285 -524 -322 -868 -808 -996
-1407 -23 -107 -27 -154 -31 -361 -5 -245 0 -311 38 -497 158 -771 767 -1407
1549 -1619 242 -66 578 -88 830 -56 728 92 1356 537 1675 1188 218 444 272
948 155 1434 -202 837 -916 1481 -1783 1607 -153 23 -515 20 -657 -4z m645
-75 c585 -85 1116 -422 1440 -912 398 -602 445 -1383 123 -2027 -107 -213
-223 -372 -393 -541 -324 -321 -729 -522 -1186 -589 -142 -21 -437 -21 -578 0
-521 77 -977 333 -1319 739 -205 244 -363 573 -427 890 -147 726 109 1473 668
1951 339 290 740 462 1177 504 126 12 360 5 495 -15z"/>
<path d="M2262 4283 c-32 -4 -34 -6 -28 -36 3 -18 8 -78 12 -135 4 -56 10
-104 13 -106 3 -2 17 -2 31 1 23 4 25 8 22 54 -5 65 18 67 56 4 24 -40 31 -44
65 -45 l39 0 -37 50 -36 49 21 21 c33 33 30 95 -6 128 -25 22 -62 26 -152 15z
m113 -83 c0 -33 -2 -35 -37 -38 l-38 -3 0 41 0 41 38 -3 c35 -3 37 -5 37 -38z"/>
<path d="M2685 4283 c-36 -9 -55 -34 -55 -74 0 -35 5 -42 56 -79 30 -23 53
-47 51 -53 -4 -13 -60 -15 -94 -4 -17 6 -24 3 -33 -14 -14 -25 -6 -33 53 -50
50 -13 92 -4 117 28 38 48 20 89 -64 146 -14 10 -26 25 -26 34 0 13 9 15 54 9
48 -5 54 -4 59 14 3 13 -1 23 -11 29 -24 12 -83 20 -107 14z"/>
<path d="M1975 4220 c-3 -5 6 -52 21 -104 30 -104 26 -126 -22 -126 -27 0 -38
22 -70 133 -19 67 -31 78 -63 58 -12 -8 -11 -22 9 -89 27 -97 51 -139 86 -152
56 -22 144 29 144 83 0 12 -12 63 -26 114 -24 83 -29 93 -50 93 -12 0 -26 -4
-29 -10z"/>
<path d="M3000 4181 c-37 -36 -66 -131 -53 -175 20 -71 139 -103 188 -50 27
30 55 104 55 149 0 89 -126 140 -190 76z m108 -37 c26 -18 27 -35 6 -97 -19
-56 -36 -71 -69 -63 -39 10 -47 36 -30 94 24 78 49 97 93 66z"/>
<path d="M1578 4070 c-46 -25 -78 -65 -78 -99 0 -37 46 -126 77 -151 35 -27
91 -26 133 3 48 32 59 53 37 74 -16 16 -19 15 -51 -16 -19 -19 -42 -31 -52
-29 -24 4 -72 74 -80 115 -6 30 -4 33 40 55 36 17 46 27 44 43 -4 27 -26 28
-70 5z"/>
<path d="M3384 4059 c-21 -11 -44 -48 -44 -73 0 -6 14 -33 30 -59 51 -81 34
-108 -37 -57 -41 28 -47 30 -61 16 -14 -14 -14 -18 9 -42 65 -70 150 -73 178
-6 14 33 6 59 -32 110 -25 33 -26 62 -3 62 6 0 28 -11 48 -25 32 -22 37 -23
49 -9 33 40 -83 109 -137 83z"/>
<path d="M1298 3709 c-181 -182 -300 -361 -387 -585 -40 -99 -82 -249 -95
-331 -6 -38 -4 -43 14 -43 12 0 21 8 24 23 71 381 226 672 496 930 93 90 101
100 87 115 -15 14 -27 4 -139 -109z"/>
<path d="M3564 3809 c-3 -6 38 -55 96 -112 232 -229 375 -473 455 -777 13 -47
26 -104 30 -127 5 -33 11 -43 26 -43 22 0 23 10 8 82 -71 345 -237 648 -491
896 -95 91 -111 102 -124 81z"/>
<path d="M1803 3372 c-25 -4 -32 -22 -8 -22 23 0 22 -351 -1 -375 -22 -21 -16
-25 48 -32 67 -7 91 5 118 57 35 68 21 187 -26 213 -12 7 -12 12 2 39 21 41 5
105 -29 112 -38 8 -81 11 -104 8z m95 -54 c3 -29 -13 -68 -28 -68 -6 0 -10 23
-10 51 0 43 3 50 18 47 10 -2 18 -14 20 -30z m18 -129 c15 -17 19 -36 19 -94
0 -78 -18 -115 -57 -115 -16 0 -18 10 -18 115 0 105 2 115 18 115 11 0 27 -9
38 -21z"/>
<path d="M2548 3373 c-22 -5 -24 -23 -3 -23 13 0 15 -20 15 -122 0 -177 -9
-258 -28 -258 -11 0 -13 -3 -5 -11 16 -16 116 -23 140 -10 30 15 63 90 63 139
0 51 -21 106 -47 120 -15 9 -16 14 -5 31 17 29 15 96 -4 115 -8 9 -30 16 -49
16 -18 0 -39 2 -47 4 -7 2 -21 2 -30 -1z m99 -39 c7 -20 -9 -76 -24 -81 -14
-5 -27 49 -18 77 8 24 33 27 42 4z m17 -143 c11 -12 17 -39 19 -82 3 -80 -16
-123 -56 -127 l-27 -3 0 109 c0 60 3 112 7 115 12 13 40 7 57 -12z"/>
<path d="M2845 3375 c-5 -2 -27 -6 -47 -10 -36 -6 -54 -25 -24 -25 11 0 14
-35 18 -172 3 -95 3 -179 0 -185 -2 -7 -10 -13 -18 -13 -8 0 -14 -4 -14 -10 0
-14 56 -22 130 -18 60 3 65 5 68 27 5 32 -14 50 -23 21 -5 -17 -13 -21 -43
-18 l-37 3 0 85 c0 74 2 85 18 88 10 2 25 -5 32 -15 13 -16 14 -14 15 25 0 23
-4 42 -10 42 -5 0 -10 -7 -10 -16 0 -10 -7 -14 -22 -12 -21 3 -23 9 -26 82 -3
86 2 96 51 96 21 0 30 -6 34 -20 7 -26 29 -20 25 6 -6 40 -11 44 -59 43 -26 0
-52 -2 -58 -4z"/>
<path d="M2099 3306 c-23 -48 -33 -93 -46 -192 -13 -102 -20 -132 -35 -142
-26 -19 -13 -32 32 -32 43 0 62 17 35 32 -15 9 -16 19 -10 77 9 91 13 101 40
101 51 0 55 -7 55 -95 0 -46 -4 -87 -10 -90 -23 -14 -7 -25 35 -25 l45 0 0 43
c0 24 -5 93 -10 153 -16 173 -38 234 -82 234 -14 0 -28 -18 -49 -64z m54 -8
c3 -13 9 -47 13 -75 l7 -53 -29 0 c-49 0 -53 9 -38 70 8 30 16 61 19 68 7 19
22 14 28 -10z"/>
<path d="M2288 3363 c-22 -5 -24 -31 -3 -39 23 -9 22 -349 -1 -358 -30 -12 -3
-24 51 -23 54 1 67 11 44 34 -5 5 -11 52 -12 104 -2 79 0 94 14 97 30 6 59
-74 59 -161 0 -74 1 -77 24 -77 26 0 55 25 35 32 -6 2 -15 40 -19 85 -5 44
-16 95 -25 112 -15 30 -15 33 5 58 27 34 27 96 0 123 -16 16 -32 20 -87 19
-38 -1 -76 -3 -85 -6z m130 -68 c3 -46 -4 -60 -35 -69 -22 -7 -23 -5 -23 54 0
61 0 61 28 58 24 -3 27 -8 30 -43z"/>
<path d="M3003 3360 c-29 -12 -29 -27 -2 -35 21 -7 22 -9 14 -179 -4 -94 -11
-176 -16 -183 -6 -6 -6 -13 -2 -16 7 -4 101 -2 111 2 2 0 -4 11 -12 23 -12 16
-16 48 -16 116 0 82 2 93 17 90 33 -6 53 -60 56 -149 2 -80 4 -84 26 -87 27
-4 52 15 35 26 -6 4 -14 43 -18 87 -4 44 -14 94 -22 111 -14 29 -13 34 7 68
26 44 20 97 -14 121 -24 17 -127 20 -164 5z m132 -40 c10 -31 -4 -79 -26 -91
-30 -16 -39 -3 -39 57 0 53 0 54 29 54 21 0 32 -6 36 -20z"/>
<path d="M1758 2783 c-30 -8 -22 -40 11 -46 26 -5 30 -12 36 -49 4 -24 5 -61
3 -83 l-3 -40 -65 -3 c-109 -5 -110 -5 -108 88 0 71 3 79 21 82 31 5 32 27 1
38 -29 11 -161 3 -169 -10 -2 -4 7 -17 20 -28 l25 -22 0 -290 c0 -257 -2 -290
-16 -290 -10 0 -14 -7 -12 -22 3 -20 10 -23 57 -26 30 -2 65 -1 78 3 27 6 30
30 6 44 -16 9 -18 28 -18 180 0 205 -2 201 103 203 40 1 74 -1 78 -4 3 -3 6
-89 7 -191 2 -181 1 -186 -20 -207 -35 -32 -28 -40 37 -40 66 0 86 16 57 48
-39 43 -48 549 -11 612 25 41 7 60 -55 59 -25 -1 -54 -3 -63 -6z"/>
<path d="M2070 2774 c-33 -14 -83 -74 -113 -134 -20 -41 -22 -60 -22 -205 l0
-161 40 -79 c35 -69 46 -83 85 -102 54 -28 92 -29 147 -4 34 16 46 30 72 84
49 102 64 184 58 317 -5 137 -19 175 -87 241 -43 42 -54 47 -101 50 -28 2 -64
-1 -79 -7z m119 -60 c11 -14 30 -51 43 -82 20 -51 22 -72 21 -192 -2 -118 -6
-146 -30 -219 -24 -73 -32 -86 -56 -94 -70 -23 -109 30 -128 173 -23 169 -3
338 48 417 22 33 75 32 102 -3z"/>
<path d="M2380 2780 c-13 -9 -11 -13 10 -30 l25 -19 -3 -203 c-3 -128 1 -234
8 -287 12 -76 17 -89 51 -125 34 -37 42 -41 88 -41 65 0 98 24 136 100 29 58
29 61 38 289 6 178 12 238 24 265 16 32 15 34 -2 47 -20 15 -112 19 -133 6
-15 -10 -7 -38 14 -46 11 -4 14 -44 14 -219 0 -118 -5 -238 -10 -268 -17 -88
-73 -125 -116 -78 -17 19 -19 42 -22 281 -3 192 -1 267 9 289 10 26 10 32 -2
40 -19 12 -110 11 -129 -1z"/>
<path d="M2885 2781 c-50 -22 -79 -82 -64 -134 10 -39 83 -111 159 -158 57
-35 71 -59 77 -128 9 -100 -28 -184 -99 -225 -34 -19 -38 -20 -53 -5 -9 9 -19
35 -22 58 -6 45 6 67 44 82 26 10 28 18 10 43 -12 17 -18 17 -69 6 -31 -7 -62
-16 -69 -20 -16 -10 -3 -44 15 -37 10 4 15 -9 18 -54 3 -45 10 -65 29 -85 54
-58 116 -69 189 -31 62 31 92 87 98 184 4 67 2 79 -27 138 -26 53 -45 75 -99
116 -80 61 -91 78 -92 147 0 61 16 75 59 51 22 -13 25 -21 23 -52 -3 -32 -1
-37 17 -37 26 0 51 47 51 96 0 36 -1 37 -34 31 -18 -3 -38 -1 -43 4 -13 13
-95 20 -118 10z"/>
<path d="M3285 2779 c-27 -5 -65 -11 -82 -14 -43 -8 -45 -35 -3 -35 l29 0 3
-272 c4 -343 4 -338 -34 -338 -23 0 -29 -4 -26 -17 4 -22 61 -31 205 -32 98
-1 103 0 119 24 17 25 12 79 -8 91 -13 8 -28 -14 -28 -43 0 -21 -5 -23 -52
-23 -29 0 -58 4 -64 8 -12 7 -25 212 -17 256 7 37 57 36 86 0 26 -34 38 -16
33 51 -5 60 -21 78 -37 42 -12 -27 -26 -32 -66 -21 -22 6 -23 10 -23 135 0
146 2 149 83 149 46 0 62 -11 69 -45 2 -11 10 -20 18 -20 19 0 26 80 9 101
-13 16 -130 18 -214 3z"/>
<path d="M802 2541 c-20 -12 -11 -55 12 -59 27 -6 48 25 35 49 -10 20 -26 24
-47 10z"/>
<path d="M4179 2534 c-17 -21 0 -49 32 -49 18 0 25 6 27 24 6 38 -34 55 -59
25z"/>
<path d="M815 2218 c23 -147 87 -343 160 -488 92 -185 301 -456 334 -436 19
12 13 23 -42 83 -140 153 -257 344 -327 532 -29 79 -75 247 -85 314 -5 29 -10
37 -26 37 -19 0 -20 -4 -14 -42z"/>
<path d="M4132 2152 c-61 -279 -195 -546 -382 -758 -55 -63 -66 -81 -57 -93
10 -11 24 0 83 62 178 189 334 490 394 764 25 111 25 133 3 133 -15 0 -22 -21
-41 -108z"/>
<path d="M2291 1779 c-70 -14 -122 -52 -224 -161 -110 -119 -157 -148 -238
-148 -76 0 -103 16 -107 62 -2 28 1 39 17 47 15 8 23 7 35 -5 9 -8 16 -11 16
-5 0 14 -37 51 -51 51 -6 0 -24 -13 -40 -29 -62 -62 -24 -164 82 -221 54 -29
75 -34 154 -38 195 -10 420 62 532 170 l31 30 49 -40 c70 -58 146 -97 248
-128 77 -23 109 -27 225 -28 129 -1 137 0 193 28 75 36 117 91 117 152 0 57
-7 72 -41 90 -33 17 -69 5 -69 -23 0 -13 3 -14 12 -5 25 25 63 -20 52 -63 -7
-30 -43 -45 -110 -45 -84 0 -133 31 -248 154 -54 59 -116 116 -138 127 -89 45
-199 42 -259 -8 l-30 -26 -22 20 c-46 43 -111 57 -186 42z"/>
<path d="M3487 1305 c-39 -27 -53 -59 -43 -100 10 -38 39 -49 96 -35 27 7 54
9 60 5 21 -13 9 -35 -30 -55 -35 -18 -39 -23 -30 -40 9 -16 15 -18 38 -9 73
28 106 104 62 144 -16 15 -30 16 -85 10 -76 -8 -85 4 -35 45 22 18 29 31 24
43 -8 22 -12 22 -57 -8z"/>
<path d="M1460 1312 c-49 -15 -61 -54 -35 -115 8 -20 15 -43 15 -52 0 -26 -38
-17 -62 15 -24 33 -26 34 -47 21 -12 -7 -10 -15 7 -43 40 -65 108 -76 145 -25
l21 27 -22 51 c-30 72 -13 93 38 44 23 -22 29 -23 44 -12 17 12 17 15 -8 44
-28 33 -71 53 -96 45z"/>
<path d="M1592 1088 c-68 -114 -70 -100 19 -152 41 -23 47 -24 53 -10 10 26 8
30 -29 50 -39 21 -40 23 -21 49 13 18 14 18 49 -4 35 -22 36 -22 46 -2 9 17 6
23 -24 41 -29 18 -33 25 -25 41 13 24 17 24 59 -2 18 -11 34 -19 35 -17 1 2 7
10 14 19 11 14 4 21 -49 53 -33 20 -62 36 -64 36 -1 0 -30 -46 -63 -102z"/>
<path d="M3272 1153 c-19 -9 -41 -31 -50 -49 -14 -30 -14 -37 2 -78 25 -64 66
-106 106 -106 38 0 86 24 100 49 27 52 -12 156 -70 186 -36 19 -47 19 -88 -2z
m82 -65 c48 -63 43 -118 -10 -118 -29 0 -74 62 -74 102 0 26 21 47 47 48 7 0
23 -15 37 -32z"/>
<path d="M1829 1032 c-42 -96 -71 -173 -68 -176 2 -2 14 -6 26 -10 19 -6 23 0
39 46 9 29 23 67 31 83 13 28 13 26 7 -32 -6 -60 -5 -63 20 -74 14 -7 28 -10
29 -8 2 2 16 21 32 42 15 21 30 36 32 33 2 -2 -8 -34 -23 -71 -22 -56 -25 -69
-13 -76 8 -5 19 -9 26 -9 11 0 89 217 81 226 -3 2 -18 7 -35 10 -27 5 -33 1
-67 -45 -21 -28 -39 -51 -41 -51 -1 0 0 31 3 69 l4 68 -31 11 c-32 11 -32 11
-52 -36z"/>
<path d="M3071 1051 c-11 -7 -6 -29 29 -115 24 -59 46 -109 50 -111 4 -2 15 2
25 9 17 12 16 19 -24 120 -42 104 -51 115 -80 97z"/>
<path d="M2848 984 c-30 -9 -48 -20 -48 -30 0 -8 12 -61 26 -118 25 -98 27
-103 50 -98 27 5 28 12 15 60 -8 27 -7 32 8 32 9 0 30 -13 46 -30 27 -29 68
-40 79 -22 3 5 -10 24 -29 42 -31 30 -33 35 -20 54 22 31 18 74 -10 101 -27
28 -50 30 -117 9z m86 -56 c6 -25 -7 -42 -41 -52 -18 -6 -22 -2 -28 23 -8 39
0 51 34 51 21 0 30 -6 35 -22z"/>
<path d="M2146 968 c-9 -26 -46 -200 -46 -213 0 -7 11 -15 25 -17 22 -5 25 -1
36 51 6 31 17 83 25 116 7 32 12 60 11 61 -14 11 -48 13 -51 2z"/>
<path d="M2286 898 c-19 -186 -19 -188 8 -188 23 0 24 4 31 83 l8 82 29 -87
c29 -87 30 -88 63 -88 l33 0 7 68 c3 37 8 91 11 120 5 50 5 52 -20 52 -24 0
-25 -3 -32 -82 l-7 -81 -31 84 c-30 79 -33 84 -63 87 -31 3 -31 3 -37 -50z"/>
<path d="M2624 943 c-19 -4 -25 -18 -43 -117 -12 -62 -21 -116 -21 -119 0 -4
10 -7 23 -7 16 0 26 9 34 30 9 24 17 30 41 30 23 0 31 -5 36 -25 5 -20 13 -25
36 -25 l30 0 -19 48 c-10 26 -31 80 -46 120 -16 39 -33 71 -39 71 -6 -1 -21
-4 -32 -6z m45 -135 c1 -5 -8 -8 -19 -8 -16 0 -20 7 -20 33 0 47 12 54 26 15
7 -18 13 -36 13 -40z"/>
</g>
</svg>
