<svg version="1.0" xmlns="http://www.w3.org/2000/svg" width="666.667" height="666.667" viewBox="0 0 500 500"><path d="M218 39c-28.9 4.8-55.2 14.5-78 28.5-52.4 32.2-86.8 80.8-99.6 140.7-2.3 10.7-2.7 15.4-3.1 36.1-.5 24.5 0 31.1 3.8 49.7 15.8 77.1 76.7 140.7 154.9 161.9 24.2 6.6 57.8 8.8 83 5.6 72.8-9.2 135.6-53.7 167.5-118.8 21.8-44.4 27.2-94.8 15.5-143.4-20.2-83.7-91.6-148.1-178.3-160.7-15.3-2.3-51.5-2-65.7.4zm64.5 7.5c58.5 8.5 111.6 42.2 144 91.2 39.8 60.2 44.5 138.3 12.3 202.7-10.7 21.3-22.3 37.2-39.3 54.1-32.4 32.1-72.9 52.2-118.6 58.9-14.2 2.1-43.7 2.1-57.8 0-52.1-7.7-97.7-33.3-131.9-73.9-20.5-24.4-36.3-57.3-42.7-89-14.7-72.6 10.9-147.3 66.8-195.1 33.9-29 74-46.2 117.7-50.4 12.6-1.2 36-.5 49.5 1.5z"/><path d="M226.2 71.7c-3.2.4-3.4.6-2.8 3.6.3 1.8.8 7.8 1.2 13.5.4 5.6 1 10.4 1.3 10.6.3.2 1.7.2 3.1-.1 2.3-.4 2.5-.8 2.2-5.4-.5-6.5 1.8-6.7 5.6-.4 2.4 4 3.1 4.4 6.5 4.5h3.9l-3.7-5-3.6-4.9L242 86c3.3-3.3 3-9.5-.6-12.8-2.5-2.2-6.2-2.6-15.2-1.5zm11.3 8.3c0 3.3-.2 3.5-3.7 3.8l-3.8.3v-8.2l3.8.3c3.5.3 3.7.5 3.7 3.8zM268.5 71.7c-3.6.9-5.5 3.4-5.5 7.4 0 3.5.5 4.2 5.6 7.9 3 2.3 5.3 4.7 5.1 5.3-.4 1.3-6 1.5-9.4.4-1.7-.6-2.4-.3-3.3 1.4-1.4 2.5-.6 3.3 5.3 5 5 1.3 9.2.4 11.7-2.8 3.8-4.8 2-8.9-6.4-14.6-1.4-1-2.6-2.5-2.6-3.4 0-1.3.9-1.5 5.4-.9 4.8.5 5.4.4 5.9-1.4.3-1.3-.1-2.3-1.1-2.9-2.4-1.2-8.3-2-10.7-1.4zM197.5 78c-.3.5.6 5.2 2.1 10.4 3 10.4 2.6 12.6-2.2 12.6-2.7 0-3.8-2.2-7-13.3-1.9-6.7-3.1-7.8-6.3-5.8-1.2.8-1.1 2.2.9 8.9 2.7 9.7 5.1 13.9 8.6 15.2 5.6 2.2 14.4-2.9 14.4-8.3 0-1.2-1.2-6.3-2.6-11.4-2.4-8.3-2.9-9.3-5-9.3-1.2 0-2.6.4-2.9 1zM300 81.9c-3.7 3.6-6.6 13.1-5.3 17.5 2 7.1 13.9 10.3 18.8 5 2.7-3 5.5-10.4 5.5-14.9 0-8.9-12.6-14-19-7.6zm10.8 3.7c2.6 1.8 2.7 3.5.6 9.7-1.9 5.6-3.6 7.1-6.9 6.3-3.9-1-4.7-3.6-3-9.4 2.4-7.8 4.9-9.7 9.3-6.6zM157.8 93c-4.6 2.5-7.8 6.5-7.8 9.9 0 3.7 4.6 12.6 7.7 15.1 3.5 2.7 9.1 2.6 13.3-.3 4.8-3.2 5.9-5.3 3.7-7.4-1.6-1.6-1.9-1.5-5.1 1.6-1.9 1.9-4.2 3.1-5.2 2.9-2.4-.4-7.2-7.4-8-11.5-.6-3-.4-3.3 4-5.5 3.6-1.7 4.6-2.7 4.4-4.3-.4-2.7-2.6-2.8-7-.5zM338.4 94.1c-2.1 1.1-4.4 4.8-4.4 7.3 0 .6 1.4 3.3 3 5.9 5.1 8.1 3.4 10.8-3.7 5.7-4.1-2.8-4.7-3-6.1-1.6-1.4 1.4-1.4 1.8.9 4.2 6.5 7 15 7.3 17.8.6 1.4-3.3.6-5.9-3.2-11-2.5-3.3-2.6-6.2-.3-6.2.6 0 2.8 1.1 4.8 2.5 3.2 2.2 3.7 2.3 4.9.9 3.3-4-8.3-10.9-13.7-8.3zM129.8 129.1c-18.1 18.2-30 36.1-38.7 58.5-4 9.9-8.2 24.9-9.5 33.1-.6 3.8-.4 4.3 1.4 4.3 1.2 0 2.1-.8 2.4-2.3 7.1-38.1 22.6-67.2 49.6-93 9.3-9 10.1-10 8.7-11.5-1.5-1.4-2.7-.4-13.9 10.9zM356.4 119.1c-.3.6 3.8 5.5 9.6 11.2 23.2 22.9 37.5 47.3 45.5 77.7 1.3 4.7 2.6 10.4 3 12.7.5 3.3 1.1 4.3 2.6 4.3 2.2 0 2.3-1 .8-8.2-7.1-34.5-23.7-64.8-49.1-89.6-9.5-9.1-11.1-10.2-12.4-8.1zM180.3 162.8c-2.5.4-3.2 2.2-.8 2.2 2.3 0 2.2 35.1-.1 37.5-2.2 2.1-1.6 2.5 4.8 3.2 6.7.7 9.1-.5 11.8-5.7 3.5-6.8 2.1-18.7-2.6-21.3-1.2-.7-1.2-1.2.2-3.9 2.1-4.1.5-10.5-2.9-11.2-3.8-.8-8.1-1.1-10.4-.8zm9.5 5.4c.3 2.9-1.3 6.8-2.8 6.8-.6 0-1-2.3-1-5.1 0-4.3.3-5 1.8-4.7 1 .2 1.8 1.4 2 3zm1.8 12.9c1.5 1.7 1.9 3.6 1.9 9.4 0 7.8-1.8 11.5-5.7 11.5-1.6 0-1.8-1-1.8-11.5s.2-11.5 1.8-11.5c1.1 0 2.7.9 3.8 2.1zM254.8 162.7c-2.2.5-2.4 2.3-.3 2.3 1.3 0 1.5 2 1.5 12.2 0 17.7-.9 25.8-2.8 25.8-1.1 0-1.3.3-.5 1.1 1.6 1.6 11.6 2.3 14 1 3-1.5 6.3-9 6.3-13.9 0-5.1-2.1-10.6-4.7-12-1.5-.9-1.6-1.4-.5-3.1 1.7-2.9 1.5-9.6-.4-11.5-.8-.9-3-1.6-4.9-1.6-1.8 0-3.9-.2-4.7-.4-.7-.2-2.1-.2-3 .1zm9.9 3.9c.7 2-.9 7.6-2.4 8.1-1.4.5-2.7-4.9-1.8-7.7.8-2.4 3.3-2.7 4.2-.4zm1.7 14.3c1.1 1.2 1.7 3.9 1.9 8.2.3 8-1.6 12.3-5.6 12.7l-2.7.3v-10.9c0-6 .3-11.2.7-11.5 1.2-1.3 4-.7 5.7 1.2zM284.5 162.5c-.5.2-2.7.6-4.7 1-3.6.6-5.4 2.5-2.4 2.5 1.1 0 1.4 3.5 1.8 17.2.3 9.5.3 17.9 0 18.5-.2.7-1 1.3-1.8 1.3s-1.4.4-1.4 1c0 1.4 5.6 2.2 13 1.8 6-.3 6.5-.5 6.8-2.7.5-3.2-1.4-5-2.3-2.1-.5 1.7-1.3 2.1-4.3 1.8l-3.7-.3V194c0-7.4.2-8.5 1.8-8.8 1-.2 2.5.5 3.2 1.5 1.3 1.6 1.4 1.4 1.5-2.5 0-2.3-.4-4.2-1-4.2-.5 0-1 .7-1 1.6 0 1-.7 1.4-2.2 1.2-2.1-.3-2.3-.9-2.6-8.2-.3-8.6.2-9.6 5.1-9.6 2.1 0 3 .6 3.4 2 .7 2.6 2.9 2 2.5-.6-.6-4-1.1-4.4-5.9-4.3-2.6 0-5.2.2-5.8.4zM209.9 169.4c-2.3 4.8-3.3 9.3-4.6 19.2-1.3 10.2-2 13.2-3.5 14.2-2.6 1.9-1.3 3.2 3.2 3.2 4.3 0 6.2-1.7 3.5-3.2-1.5-.9-1.6-1.9-1-7.7.9-9.1 1.3-10.1 4-10.1 5.1 0 5.5.7 5.5 9.5 0 4.6-.4 8.7-1 9-2.3 1.4-.7 2.5 3.5 2.5h4.5v-4.3c0-2.4-.5-9.3-1-15.3-1.6-17.3-3.8-23.4-8.2-23.4-1.4 0-2.8 1.8-4.9 6.4zm5.4.8c.3 1.3.9 4.7 1.3 7.5l.7 5.3h-2.9c-4.9 0-5.3-.9-3.8-7 .8-3 1.6-6.1 1.9-6.8.7-1.9 2.2-1.4 2.8 1zM228.8 163.7c-2.2.5-2.4 3.1-.3 3.9 2.3.9 2.2 34.9-.1 35.8-3 1.2-.3 2.4 5.1 2.3 5.4-.1 6.7-1.1 4.4-3.4-.5-.5-1.1-5.2-1.2-10.4-.2-7.9 0-9.4 1.4-9.7 3-.6 5.9 7.4 5.9 16.1 0 7.4.1 7.7 2.4 7.7 2.6 0 5.5-2.5 3.5-3.2-.6-.2-1.5-4-1.9-8.5-.5-4.4-1.6-9.5-2.5-11.2-1.5-3-1.5-3.3.5-5.8 2.7-3.4 2.7-9.6 0-12.3-1.6-1.6-3.2-2-8.7-1.9-3.8.1-7.6.3-8.5.6zm13 6.8c.3 4.6-.4 6-3.5 6.9-2.2.7-2.3.5-2.3-5.4 0-6.1 0-6.1 2.8-5.8 2.4.3 2.7.8 3 4.3zM300.3 164c-2.9 1.2-2.9 2.7-.2 3.5 2.1.7 2.2.9 1.4 17.9-.4 9.4-1.1 17.6-1.6 18.3-.6.6-.6 1.3-.2 1.6.7.4 10.1.2 11.1-.2.2 0-.4-1.1-1.2-2.3-1.2-1.6-1.6-4.8-1.6-11.6 0-8.2.2-9.3 1.7-9 3.3.6 5.3 6 5.6 14.9.2 8 .4 8.4 2.6 8.7 2.7.4 5.2-1.5 3.5-2.6-.6-.4-1.4-4.3-1.8-8.7-.4-4.4-1.4-9.4-2.2-11.1-1.4-2.9-1.3-3.4.7-6.8 2.6-4.4 2-9.7-1.4-12.1-2.4-1.7-12.7-2-16.4-.5zm13.2 4c1 3.1-.4 7.9-2.6 9.1-3 1.6-3.9.3-3.9-5.7 0-5.3 0-5.4 2.9-5.4 2.1 0 3.2.6 3.6 2zM175.8 221.7c-3 .8-2.2 4 1.1 4.6 2.6.5 3 1.2 3.6 4.9.4 2.4.5 6.1.3 8.3l-.3 4-6.5.3c-10.9.5-11 .5-10.8-8.8 0-7.1.3-7.9 2.1-8.2 3.1-.5 3.2-2.7.1-3.8-2.9-1.1-16.1-.3-16.9 1-.2.4.7 1.7 2 2.8l2.5 2.2v29c0 25.7-.2 29-1.6 29-1 0-1.4.7-1.2 2.2.3 2 1 2.3 5.7 2.6 3 .2 6.5.1 7.8-.3 2.7-.6 3-3 .6-4.4-1.6-.9-1.8-2.8-1.8-18 0-20.5-.2-20.1 10.3-20.3 4-.1 7.4.1 7.8.4.3.3.6 8.9.7 19.1.2 18.1.1 18.6-2 20.7-3.5 3.2-2.8 4 3.7 4 6.6 0 8.6-1.6 5.7-4.8-3.9-4.3-4.8-54.9-1.1-61.2 2.5-4.1.7-6-5.5-5.9-2.5.1-5.4.3-6.3.6zM207 222.6c-3.3 1.4-8.3 7.4-11.3 13.4-2 4.1-2.2 6-2.2 20.5v16.1l4 7.9c3.5 6.9 4.6 8.3 8.5 10.2 5.4 2.8 9.2 2.9 14.7.4 3.4-1.6 4.6-3 7.2-8.4 4.9-10.2 6.4-18.4 5.8-31.7-.5-13.7-1.9-17.5-8.7-24.1-4.3-4.2-5.4-4.7-10.1-5-2.8-.2-6.4.1-7.9.7zm11.9 6c1.1 1.4 3 5.1 4.3 8.2 2 5.1 2.2 7.2 2.1 19.2-.2 11.8-.6 14.6-3 21.9-2.4 7.3-3.2 8.6-5.6 9.4-7 2.3-10.9-3-12.8-17.3-2.3-16.9-.3-33.8 4.8-41.7 2.2-3.3 7.5-3.2 10.2.3zM238 222c-1.3.9-1.1 1.3 1 3l2.5 1.9-.3 20.3c-.3 12.8.1 23.4.8 28.7 1.2 7.6 1.7 8.9 5.1 12.5 3.4 3.7 4.2 4.1 8.8 4.1 6.5 0 9.8-2.4 13.6-10 2.9-5.8 2.9-6.1 3.8-28.9.6-17.8 1.2-23.8 2.4-26.5 1.6-3.2 1.5-3.4-.2-4.7-2-1.5-11.2-1.9-13.3-.6-1.5 1-.7 3.8 1.4 4.6 1.1.4 1.4 4.4 1.4 21.9 0 11.8-.5 23.8-1 26.8-1.7 8.8-7.3 12.5-11.6 7.8-1.7-1.9-1.9-4.2-2.2-28.1-.3-19.2-.1-26.7.9-28.9 1-2.6 1-3.2-.2-4-1.9-1.2-11-1.1-12.9.1zM288.5 221.9c-5 2.2-7.9 8.2-6.4 13.4 1 3.9 8.3 11.1 15.9 15.8 5.7 3.5 7.1 5.9 7.7 12.8.9 10-2.8 18.4-9.9 22.5-3.4 1.9-3.8 2-5.3.5-.9-.9-1.9-3.5-2.2-5.8-.6-4.5.6-6.7 4.4-8.2 2.6-1 2.8-1.8 1-4.3-1.2-1.7-1.8-1.7-6.9-.6-3.1.7-6.2 1.6-6.9 2-1.6 1-.3 4.4 1.5 3.7 1-.4 1.5.9 1.8 5.4.3 4.5 1 6.5 2.9 8.5 5.4 5.8 11.6 6.9 18.9 3.1 6.2-3.1 9.2-8.7 9.8-18.4.4-6.7.2-7.9-2.7-13.8-2.6-5.3-4.5-7.5-9.9-11.6-8-6.1-9.1-7.8-9.2-14.7 0-6.1 1.6-7.5 5.9-5.1 2.2 1.3 2.5 2.1 2.3 5.2-.3 3.2-.1 3.7 1.7 3.7 2.6 0 5.1-4.7 5.1-9.6 0-3.6-.1-3.7-3.4-3.1-1.8.3-3.8.1-4.3-.4-1.3-1.3-9.5-2-11.8-1zM328.5 222.1c-2.7.5-6.5 1.1-8.2 1.4-4.3.8-4.5 3.5-.3 3.5h2.9l.3 27.2c.4 34.3.4 33.8-3.4 33.8-2.3 0-2.9.4-2.6 1.7.4 2.2 6.1 3.1 20.5 3.2 9.8.1 10.3 0 11.9-2.4 1.7-2.5 1.2-7.9-.8-9.1-1.3-.8-2.8 1.4-2.8 4.3 0 2.1-.5 2.3-5.2 2.3-2.9 0-5.8-.4-6.4-.8-1.2-.7-2.5-21.2-1.7-25.6.7-3.7 5.7-3.6 8.6 0 2.6 3.4 3.8 1.6 3.3-5.1-.5-6-2.1-7.8-3.7-4.2-1.2 2.7-2.6 3.2-6.6 2.1-2.2-.6-2.3-1-2.3-13.5 0-14.6.2-14.9 8.3-14.9 4.6 0 6.2 1.1 6.9 4.5.2 1.1 1 2 1.8 2 1.9 0 2.6-8 .9-10.1-1.3-1.6-13-1.8-21.4-.3zM80.2 245.9c-2 1.2-1.1 5.5 1.2 5.9 2.7.6 4.8-2.5 3.5-4.9-1-2-2.6-2.4-4.7-1zM417.9 246.6c-1.7 2.1 0 4.9 3.2 4.9 1.8 0 2.5-.6 2.7-2.4.6-3.8-3.4-5.5-5.9-2.5zM81.5 278.2c2.3 14.7 8.7 34.3 16 48.8 9.2 18.5 30.1 45.6 33.4 43.6 1.9-1.2 1.3-2.3-4.2-8.3-14-15.3-25.7-34.4-32.7-53.2-2.9-7.9-7.5-24.7-8.5-31.4-.5-2.9-1-3.7-2.6-3.7-1.9 0-2 .4-1.4 4.2zM413.2 284.8c-6.1 27.9-19.5 54.6-38.2 75.8-5.5 6.3-6.6 8.1-5.7 9.3 1 1.1 2.4 0 8.3-6.2 17.8-18.9 33.4-49 39.4-76.4 2.5-11.1 2.5-13.3.3-13.3-1.5 0-2.2 2.1-4.1 10.8zM229.1 322.1c-7 1.4-12.2 5.2-22.4 16.1-11 11.9-15.7 14.8-23.8 14.8-7.6 0-10.3-1.6-10.7-6.2-.2-2.8.1-3.9 1.7-4.7 1.5-.8 2.3-.7 3.5.5.9.8 1.6 1.1 1.6.5 0-1.4-3.7-5.1-5.1-5.1-.6 0-2.4 1.3-4 2.9-6.2 6.2-2.4 16.4 8.2 22.1 5.4 2.9 7.5 3.4 15.4 3.8 19.5 1 42-6.2 53.2-17l3.1-3 4.9 4c7 5.8 14.6 9.7 24.8 12.8 7.7 2.3 10.9 2.7 22.5 2.8 12.9.1 13.7 0 19.3-2.8 7.5-3.6 11.7-9.1 11.7-15.2 0-5.7-.7-7.2-4.1-9-3.3-1.7-6.9-.5-6.9 2.3 0 1.3.3 1.4 1.2.5 2.5-2.5 6.3 2 5.2 6.3-.7 3-4.3 4.5-11 4.5-8.4 0-13.3-3.1-24.8-15.4-5.4-5.9-11.6-11.6-13.8-12.7-8.9-4.5-19.9-4.2-25.9.8l-3 2.6-2.2-2c-4.6-4.3-11.1-5.7-18.6-4.2zM348.7 369.5c-3.9 2.7-5.3 5.9-4.3 10 1 3.8 3.9 4.9 9.6 3.5 2.7-.7 5.4-.9 6-.5 2.1 1.3.9 3.5-3 5.5-3.5 1.8-3.9 2.3-3 4 .9 1.6 1.5 1.8 3.8.9 7.3-2.8 10.6-10.4 6.2-14.4-1.6-1.5-3-1.6-8.5-1-7.6.8-8.5-.4-3.5-4.5 2.2-1.8 2.9-3.1 2.4-4.3-.8-2.2-1.2-2.2-5.7.8zM146 368.8c-4.9 1.5-6.1 5.4-3.5 11.5.8 2 1.5 4.3 1.5 5.2 0 2.6-3.8 1.7-6.2-1.5-2.4-3.3-2.6-3.4-4.7-2.1-1.2.7-1 1.5.7 4.3 4 6.5 10.8 7.6 14.5 2.5l2.1-2.7-2.2-5.1c-3-7.2-1.3-9.3 3.8-4.4 2.3 2.2 2.9 2.3 4.4 1.2 1.7-1.2 1.7-1.5-.8-4.4-2.8-3.3-7.1-5.3-9.6-4.5zM159.2 391.2c-6.8 11.4-7 10 1.9 15.2 4.1 2.3 4.7 2.4 5.3 1 1-2.6.8-3-2.9-5-3.9-2.1-4-2.3-2.1-4.9 1.3-1.8 1.4-1.8 4.9.4 3.5 2.2 3.6 2.2 4.6.2.9-1.7.6-2.3-2.4-4.1-2.9-1.8-3.3-2.5-2.5-4.1 1.3-2.4 1.7-2.4 5.9.2 1.8 1.1 3.4 1.9 3.5 1.7.1-.2.7-1 1.4-1.9 1.1-1.4.4-2.1-4.9-5.3-3.3-2-6.2-3.6-6.4-3.6-.1 0-3 4.6-6.3 10.2zM327.2 384.7c-1.9.9-4.1 3.1-5 4.9-1.4 3-1.4 3.7.2 7.8 2.5 6.4 6.6 10.6 10.6 10.6 3.8 0 8.6-2.4 10-4.9 2.7-5.2-1.2-15.6-7-18.6-3.6-1.9-4.7-1.9-8.8.2zm8.2 6.5c4.8 6.3 4.3 11.8-1 11.8-2.9 0-7.4-6.2-7.4-10.2 0-2.6 2.1-4.7 4.7-4.8.7 0 2.3 1.5 3.7 3.2zM182.9 396.8c-4.2 9.6-7.1 17.3-6.8 17.6.2.2 1.4.6 2.6 1 1.9.6 2.3 0 3.9-4.6.9-2.9 2.3-6.7 3.1-8.3 1.3-2.8 1.3-2.6.7 3.2-.6 6-.5 6.3 2 7.4 1.4.7 2.8 1 2.9.8.2-.2 1.6-2.1 3.2-4.2 1.5-2.1 3-3.6 3.2-3.3.2.2-.8 3.4-2.3 7.1-2.2 5.6-2.5 6.9-1.3 7.6.8.5 1.9.9 2.6.9 1.1 0 8.9-21.7 8.1-22.6-.3-.2-1.8-.7-3.5-1-2.7-.5-3.3-.1-6.7 4.5-2.1 2.8-3.9 5.1-4.1 5.1-.1 0 0-3.1.3-6.9l.4-6.8-3.1-1.1c-3.2-1.1-3.2-1.1-5.2 3.6zM307.1 394.9c-1.1.7-.6 2.9 2.9 11.5 2.4 5.9 4.6 10.9 5 11.1.4.2 1.5-.2 2.5-.9 1.7-1.2 1.6-1.9-2.4-12-4.2-10.4-5.1-11.5-8-9.7zM284.8 401.6c-3 .9-4.8 2-4.8 3 0 .8 1.2 6.1 2.6 11.8 2.5 9.8 2.7 10.3 5 9.8 2.7-.5 2.8-1.2 1.5-6-.8-2.7-.7-3.2.8-3.2.9 0 3 1.3 4.6 3 2.7 2.9 6.8 4 7.9 2.2.3-.5-1-2.4-2.9-4.2-3.1-3-3.3-3.5-2-5.4 2.2-3.1 1.8-7.4-1-10.1-2.7-2.8-5-3-11.7-.9zm8.6 5.6c.6 2.5-.7 4.2-4.1 5.2-1.8.6-2.2.2-2.8-2.3-.8-3.9 0-5.1 3.4-5.1 2.1 0 3 .6 3.5 2.2zM214.6 403.2c-.9 2.6-4.6 20-4.6 21.3 0 .7 1.1 1.5 2.5 1.7 2.2.5 2.5.1 3.6-5.1.6-3.1 1.7-8.3 2.5-11.6.7-3.2 1.2-6 1.1-6.1-1.4-1.1-4.8-1.3-5.1-.2zM228.6 410.2c-1.9 18.6-1.9 18.8.8 18.8 2.3 0 2.4-.4 3.1-8.3l.8-8.2 2.9 8.7c2.9 8.7 3 8.8 6.3 8.8h3.3l.7-6.8c.3-3.7.8-9.1 1.1-12 .5-5 .5-5.2-2-5.2-2.4 0-2.5.3-3.2 8.2l-.7 8.1-3.1-8.4c-3-7.9-3.3-8.4-6.3-8.7-3.1-.3-3.1-.3-3.7 5zM262.4 405.7c-1.9.4-2.5 1.8-4.3 11.7-1.2 6.2-2.1 11.6-2.1 11.9 0 .4 1 .7 2.3.7 1.6 0 2.6-.9 3.4-3 .9-2.4 1.7-3 4.1-3 2.3 0 3.1.5 3.6 2.5s1.3 2.5 3.6 2.5h3l-1.9-4.8c-1-2.6-3.1-8-4.6-12-1.6-3.9-3.3-7.1-3.9-7.1-.6.1-2.1.4-3.2.6zm4.5 13.5c.1.5-.8.8-1.9.8-1.6 0-2-.7-2-3.3 0-4.7 1.2-5.4 2.6-1.5.7 1.8 1.3 3.6 1.3 4z"/></svg>