<?xml version="1.0" standalone="no"?>
<!DOCTYPE svg PUBLIC "-//W3C//DTD SVG 20010904//EN"
 "http://www.w3.org/TR/2001/REC-SVG-20010904/DTD/svg10.dtd">
<svg version="1.0" xmlns="http://www.w3.org/2000/svg"
 width="1000.000000pt" height="1024.000000pt" viewBox="0 0 1000.000000 1024.000000"
 preserveAspectRatio="xMidYMid meet">

<g transform="translate(0.000000,1024.000000) scale(0.100000,-0.100000)"
fill="#000000" stroke="none">
<path d="M4915 9084 c-324 -14 -730 -90 -1024 -190 -463 -158 -857 -379 -1248
-699 -73 -60 -377 -364 -454 -455 -125 -146 -298 -392 -392 -558 -424 -740
-588 -1595 -468 -2432 68 -467 226 -928 456 -1330 21 -36 46 -81 57 -100 11
-19 53 -83 94 -143 41 -59 74 -113 74 -119 0 -7 -84 -262 -187 -568 -120 -359
-187 -573 -189 -605 -2 -27 -6 -67 -9 -87 -8 -56 9 -67 102 -63 48 2 107 13
153 28 41 14 125 41 185 60 61 19 223 71 360 115 138 44 323 104 413 132 l163
53 67 -45 c93 -62 265 -157 402 -222 388 -184 754 -286 1250 -347 124 -15 618
-15 740 0 284 35 429 64 660 128 164 45 181 51 387 134 364 147 668 326 972
572 159 130 491 458 491 486 0 3 9 12 20 19 11 7 20 18 20 26 0 8 7 16 15 20
8 3 15 12 15 21 0 8 5 15 10 15 6 0 10 6 10 13 0 7 11 20 24 31 14 10 22 24
19 32 -3 8 -1 14 5 14 5 0 15 13 22 30 7 16 16 30 21 30 5 0 9 6 9 13 1 20 49
69 62 61 7 -4 8 -3 4 4 -4 7 -3 12 2 12 20 0 161 236 265 445 204 410 318 817
377 1341 5 50 10 200 10 334 0 229 -5 310 -31 505 -142 1070 -739 2032 -1635
2638 -614 414 -1301 634 -2034 650 -107 2 -226 3 -265 1z m-997 -1758 c37 -20
86 -73 110 -121 11 -22 68 -157 127 -300 59 -143 143 -345 187 -450 98 -232
100 -252 40 -371 -49 -96 -69 -124 -209 -287 -66 -76 -113 -140 -116 -157 -11
-52 9 -93 137 -285 306 -458 709 -814 1172 -1035 267 -128 328 -146 386 -116
41 22 208 215 364 423 73 96 91 114 130 129 45 17 48 17 122 -5 135 -40 967
-444 1000 -486 12 -15 24 -47 28 -73 16 -102 -34 -375 -91 -499 -67 -146 -235
-292 -470 -408 -182 -89 -314 -119 -530 -119 -130 0 -165 4 -260 27 -210 52
-582 181 -885 307 -401 166 -876 516 -1240 915 -246 268 -369 427 -622 800
-290 428 -423 830 -388 1175 34 340 144 573 387 816 63 62 124 101 191 119 69
19 394 20 430 1z"/>
</g>
</svg>
